<svg id="svg" xmlns="http://www.w3.org/2000/svg" xmlns:xlink="http://www.w3.org/1999/xlink" width="400" height="400" viewBox="0, 0, 400,400" version="1.1"><g id="svgg"><path id="path0" d="M10.547 1.458 C -4.179 8.164,-3.877 37.649,11.149 60.156 C 12.439 62.090,44.118 94.348,81.546 131.840 L 149.597 200.009 74.799 274.811 C 0.492 349.120,0.000 349.633,0.000 352.741 C 0.000 357.622,42.387 400.000,47.269 400.000 C 50.364 400.000,50.961 399.426,125.192 325.199 L 199.996 250.398 274.812 325.199 C 348.905 399.277,349.659 400.000,352.729 400.000 C 357.585 400.000,400.000 357.569,400.000 352.711 C 400.000 349.026,303.853 251.562,300.218 251.563 C 295.733 251.563,292.219 255.639,293.363 259.513 C 293.658 260.511,314.433 281.897,339.530 307.036 L 385.161 352.744 368.943 368.948 L 352.725 385.152 301.569 333.991 L 250.414 282.831 269.738 263.450 C 287.412 245.724,289.062 243.841,289.062 241.406 C 289.062 238.971,287.412 237.088,269.742 219.367 L 250.422 199.990 318.463 131.831 C 386.037 64.141,389.025 60.962,393.556 51.953 C 399.116 40.902,401.821 22.074,399.226 12.501 C 394.765 -3.953,363.563 -4.665,339.844 11.145 C 337.910 12.434,305.654 44.113,268.164 81.543 L 200.000 149.597 131.836 81.543 C 62.730 12.548,60.632 10.593,50.581 5.831 C 38.445 0.081,18.381 -2.111,10.547 1.458 M35.547 13.733 C 49.104 16.933,48.864 16.733,98.255 65.949 L 142.994 110.528 138.099 111.754 C 124.557 115.145,115.163 124.344,111.827 137.479 L 110.447 142.913 66.347 98.605 C 19.759 51.798,19.021 50.951,15.054 39.715 C 12.130 31.435,11.557 17.777,14.003 14.690 C 16.389 11.680,25.193 11.288,35.547 13.733 M385.678 14.514 C 390.052 18.887,387.129 38.243,380.339 49.871 C 378.485 53.046,365.288 66.822,333.653 98.605 L 289.553 142.913 288.141 137.355 C 284.855 124.416,275.433 115.052,262.502 111.873 L 257.031 110.528 300.586 67.089 C 342.385 25.400,347.127 21.017,354.437 17.307 C 364.407 12.246,381.852 10.687,385.678 14.514 M155.943 125.751 C 158.489 127.023,161.787 129.318,163.271 130.849 L 165.971 133.634 149.737 149.825 L 133.503 166.016 129.729 161.954 C 112.555 143.472,133.504 114.538,155.943 125.751 M263.763 125.620 C 277.847 132.841,280.995 150.413,270.271 161.954 L 266.497 166.016 250.267 149.829 L 234.037 133.642 236.354 131.219 C 243.526 123.723,255.350 121.308,263.763 125.620 M183.209 150.787 L 190.999 158.606 174.797 174.807 L 158.596 191.009 150.593 183.005 L 142.590 175.002 158.593 158.986 C 167.394 150.176,174.781 142.969,175.008 142.969 C 175.234 142.969,178.925 146.487,183.209 150.787 M241.407 158.986 L 257.410 175.002 249.407 183.005 L 241.404 191.009 225.203 174.807 L 209.001 158.606 216.791 150.787 C 221.075 146.487,224.766 142.969,224.992 142.969 C 225.219 142.969,232.606 150.176,241.407 158.986 M216.405 183.983 L 232.404 199.997 228.698 203.703 L 224.992 207.409 208.803 191.220 L 192.613 175.031 196.079 171.500 C 197.985 169.558,199.738 167.969,199.974 167.969 C 200.211 167.969,207.605 175.175,216.405 183.983 M195.315 237.103 L 175.000 257.418 158.793 241.210 L 142.586 225.003 162.888 204.690 L 183.191 184.376 199.410 200.582 L 215.630 216.788 195.315 237.103 M249.616 217.194 L 257.405 225.012 241.204 241.214 L 225.002 257.415 216.999 249.412 L 208.996 241.409 224.999 225.392 C 233.800 216.583,241.187 209.375,241.414 209.375 C 241.641 209.375,245.331 212.893,249.616 217.194 M149.998 250.389 L 165.998 266.403 162.292 270.109 L 158.586 273.815 142.396 257.626 L 126.207 241.437 129.672 237.906 C 131.578 235.964,133.332 234.375,133.568 234.375 C 133.805 234.375,141.199 241.581,149.998 250.389 M270.328 237.906 L 273.793 241.437 257.604 257.626 L 241.414 273.815 237.708 270.109 L 234.002 266.403 250.002 250.389 C 258.801 241.581,266.195 234.375,266.432 234.375 C 266.668 234.375,268.422 235.964,270.328 237.906 M133.596 266.799 L 149.600 282.817 98.437 333.985 L 47.275 385.152 31.057 368.948 L 14.839 352.744 65.816 301.762 C 93.853 273.723,116.972 250.781,117.192 250.781 C 117.412 250.781,124.794 257.989,133.596 266.799 " stroke="none" fill="#000000" fill-rule="evenodd"></path></g></svg>