<svg id="svg" xmlns="http://www.w3.org/2000/svg" xmlns:xlink="http://www.w3.org/1999/xlink" width="400" height="400" viewBox="0, 0, 400,400"><g id="svgg"><path id="path0" d="M310.547 68.911 C 301.712 72.000,298.560 80.439,302.285 91.035 L 303.788 95.313 181.191 95.313 L 58.594 95.313 58.594 90.355 C 58.594 83.720,55.976 81.231,51.511 83.621 C 50.239 84.302,50.000 85.291,50.000 89.871 L 50.000 95.313 34.496 95.312 C 17.513 95.312,16.406 95.607,16.406 100.136 C 16.406 104.328,17.846 104.688,34.632 104.688 L 50.000 104.688 50.000 110.129 C 50.000 114.709,50.239 115.698,51.511 116.379 C 55.982 118.771,58.594 116.238,58.594 109.509 L 58.594 104.688 183.150 104.688 L 307.707 104.688 308.238 106.445 C 308.530 107.412,309.674 109.170,310.781 110.352 L 312.792 112.500 337.749 112.500 C 365.718 112.500,366.075 112.434,369.153 106.719 C 370.201 104.772,371.300 103.895,373.113 103.555 C 378.850 102.478,382.645 96.832,383.360 88.309 C 384.704 72.276,376.066 66.849,354.136 69.948 C 345.203 71.211,344.580 71.200,333.726 69.610 C 321.638 67.838,314.254 67.615,310.547 68.911 M328.800 78.219 C 340.231 79.876,345.445 79.912,361.413 78.442 C 371.351 77.527,374.584 79.564,374.307 86.567 C 374.024 93.718,371.142 96.666,368.675 92.329 C 366.085 87.774,364.320 87.499,337.773 87.512 C 324.247 87.519,313.167 87.843,312.521 88.252 C 310.900 89.277,310.183 87.825,310.168 83.494 C 310.154 79.158,311.362 77.959,317.086 76.630 C 317.245 76.593,322.517 77.308,328.800 78.219 M360.208 96.902 C 361.174 97.420,361.719 98.537,361.719 100.000 C 361.719 103.695,360.431 103.906,337.942 103.906 L 317.188 103.906 317.188 100.000 L 317.188 96.094 337.942 96.094 C 350.755 96.094,359.275 96.403,360.208 96.902 M189.387 133.882 C 186.707 135.094,183.594 138.631,183.594 140.463 C 183.594 141.981,130.893 141.370,91.016 139.389 C 76.836 138.685,58.027 138.060,49.219 138.000 L 33.203 137.891 29.037 140.198 C 20.866 144.724,16.831 152.098,16.831 162.500 C 16.831 172.902,20.866 180.276,29.037 184.802 L 33.203 187.109 48.438 187.027 C 56.816 186.981,75.801 186.349,90.625 185.622 C 105.449 184.895,132.344 184.104,150.391 183.865 L 183.203 183.429 184.375 186.003 C 187.930 193.809,199.540 193.825,203.125 186.028 L 204.297 183.479 226.172 183.978 C 238.203 184.253,264.746 184.979,285.156 185.593 C 374.847 188.291,367.668 188.720,376.241 180.147 C 388.580 167.809,385.235 147.346,369.625 139.673 C 364.805 137.303,358.597 137.099,325.000 138.205 C 293.557 139.239,254.283 140.353,225.000 141.040 L 204.297 141.526 203.125 138.975 C 200.829 133.977,194.425 131.603,189.387 133.882 M194.922 162.565 C 194.922 179.695,194.761 182.422,193.750 182.422 C 192.578 182.422,191.478 145.945,192.564 143.114 C 194.307 138.571,194.922 143.640,194.922 162.565 M87.427 148.466 C 104.360 149.310,122.579 150.000,127.914 150.000 L 137.613 150.000 136.040 152.001 C 132.304 156.750,132.304 168.250,136.040 172.999 L 137.613 175.000 127.952 175.000 C 122.639 175.000,108.111 175.517,95.669 176.148 C 31.861 179.388,36.777 179.510,31.286 174.549 C 23.951 167.923,23.738 157.684,30.792 150.847 C 34.922 146.843,38.157 146.031,48.047 146.513 C 52.773 146.744,70.495 147.623,87.427 148.466 M362.751 146.931 C 374.757 150.265,378.164 166.011,368.725 174.539 C 364.045 178.767,362.294 178.975,338.681 178.113 C 295.655 176.542,237.532 175.000,221.362 175.000 L 204.688 175.000 204.688 162.500 L 204.688 150.000 221.289 150.000 C 236.768 150.000,297.240 148.379,334.766 146.957 C 359.108 146.034,359.519 146.034,362.751 146.931 M182.813 162.500 L 182.813 175.000 177.773 175.000 C 164.022 175.000,156.280 168.363,159.312 159.174 C 161.370 152.939,166.695 150.223,177.148 150.078 L 182.813 150.000 182.813 162.500 M151.132 155.053 C 150.509 156.543,150.000 159.894,150.000 162.500 C 150.000 165.106,150.509 168.457,151.132 169.947 C 152.459 173.124,152.436 173.133,148.376 171.062 C 140.483 167.036,140.395 158.100,148.209 153.976 C 152.227 151.856,152.436 151.933,151.132 155.053 M189.387 208.882 C 186.704 210.096,183.594 213.631,183.594 215.467 C 183.594 216.528,179.785 216.601,149.414 216.128 C 116.631 215.617,107.478 215.317,59.328 213.173 C 35.130 212.095,33.204 212.313,26.803 216.864 C 13.963 225.993,12.958 245.465,24.770 256.261 C 31.751 262.641,33.639 262.943,59.375 261.799 C 105.800 259.735,116.424 259.394,149.219 258.914 L 183.203 258.417 184.375 260.997 C 187.924 268.809,199.538 268.828,203.125 261.028 L 204.297 258.479 226.172 258.978 C 238.203 259.253,264.746 259.979,285.156 260.593 C 374.847 263.291,367.668 263.720,376.241 255.147 C 388.580 242.809,385.235 222.346,369.625 214.673 C 364.805 212.303,358.597 212.099,325.000 213.205 C 293.557 214.239,254.283 215.353,225.000 216.040 L 204.297 216.526 203.125 213.975 C 200.829 208.977,194.425 206.603,189.387 208.882 M194.922 237.565 C 194.922 254.695,194.761 257.422,193.750 257.422 C 192.578 257.422,191.478 220.945,192.564 218.114 C 194.307 213.571,194.922 218.640,194.922 237.565 M75.781 223.085 C 88.457 223.717,107.511 224.462,118.124 224.740 L 137.419 225.247 135.943 227.124 C 132.298 231.757,132.352 243.311,136.040 247.999 L 137.613 250.000 127.205 250.007 C 116.733 250.014,78.188 251.644,53.516 253.123 C 32.499 254.383,25.061 249.860,25.922 236.341 C 26.594 225.779,33.377 220.804,46.094 221.547 C 49.746 221.761,63.105 222.452,75.781 223.085 M362.751 221.931 C 374.757 225.265,378.164 241.011,368.725 249.539 C 364.045 253.767,362.294 253.975,338.681 253.113 C 295.655 251.542,237.532 250.000,221.362 250.000 L 204.688 250.000 204.688 237.500 L 204.688 225.000 221.289 225.000 C 236.768 225.000,297.240 223.379,334.766 221.957 C 359.108 221.034,359.519 221.034,362.751 221.931 M182.813 237.500 L 182.813 250.000 177.773 250.000 C 164.022 250.000,156.280 243.363,159.312 234.174 C 161.370 227.939,166.695 225.223,177.148 225.078 L 182.813 225.000 182.813 237.500 M151.132 230.053 C 150.509 231.543,150.000 234.894,150.000 237.500 C 150.000 240.106,150.509 243.457,151.132 244.947 C 152.459 248.124,152.436 248.133,148.376 246.062 C 140.483 242.036,140.395 233.100,148.209 228.976 C 152.227 226.856,152.436 226.933,151.132 230.053 M51.367 283.656 C 50.273 284.294,50.000 285.535,50.000 289.883 L 50.000 295.313 34.496 295.313 C 17.513 295.313,16.406 295.607,16.406 300.136 C 16.406 304.328,17.846 304.688,34.632 304.688 L 50.000 304.688 50.000 310.129 C 50.000 314.709,50.239 315.698,51.511 316.379 C 55.982 318.771,58.594 316.238,58.594 309.509 L 58.594 304.688 181.191 304.688 L 303.788 304.688 302.285 308.965 C 295.731 327.611,306.609 334.899,334.186 330.339 C 343.767 328.755,345.026 328.708,350.983 329.708 C 372.365 333.299,383.594 328.477,383.594 315.702 C 383.594 304.939,379.738 297.688,373.381 296.495 C 371.279 296.101,370.251 295.320,369.153 293.281 C 366.075 287.566,365.718 287.500,337.749 287.500 L 312.792 287.500 310.781 289.648 C 309.674 290.830,308.530 292.588,308.238 293.555 L 307.707 295.313 183.150 295.313 L 58.594 295.313 58.594 290.355 C 58.594 283.735,55.753 281.102,51.367 283.656 M360.208 296.902 C 361.174 297.420,361.719 298.537,361.719 300.000 C 361.719 303.695,360.431 303.906,337.942 303.906 L 317.188 303.906 317.188 300.000 L 317.188 296.094 337.942 296.094 C 350.755 296.094,359.275 296.403,360.208 296.902 M372.985 307.227 C 374.237 309.148,374.845 317.104,373.861 318.697 C 371.893 321.882,364.862 322.569,353.347 320.701 C 346.876 319.651,345.253 319.660,337.331 320.782 C 313.225 324.198,308.080 322.942,310.304 314.184 C 311.005 311.420,311.313 311.083,312.538 311.739 C 313.372 312.185,323.871 312.500,337.917 312.500 C 364.303 312.500,366.088 312.220,368.675 307.671 C 370.184 305.017,371.459 304.886,372.985 307.227 " stroke="none" fill="#000000" fill-rule="evenodd"></path></g></svg>